<svg width="206" height="37" viewBox="0 0 206 37" fill="none" xmlns="http://www.w3.org/2000/svg">
<path d="M36.001 18.273C36.001 8.20651 27.9432 0.0479736 18.001 0.0479736C8.05879 0.0479736 0.000976562 8.20651 0.000976562 18.273C0.000976562 28.3394 8.05879 36.498 18.001 36.498C18.1064 36.498 18.2119 36.498 18.3174 36.4909V22.3095H14.4502V17.7462H18.3174V14.3859C18.3174 10.4918 20.6658 8.37025 24.0971 8.37025C25.7424 8.37025 27.1557 8.49127 27.5635 8.54823V12.6204H25.201C23.3377 12.6204 22.9721 13.5174 22.9721 14.8344V17.739H27.4369L26.8533 22.3024H22.9721V35.7932C30.4955 33.6076 36.001 26.5952 36.001 18.273Z" fill="black"/>
<path d="M73.334 20.2979L77.334 17.5979L73.334 14.8979V20.2979Z" fill="black"/>
<path d="M74.001 0.0479736C64.0614 0.0479736 56.001 8.20912 56.001 18.273C56.001 28.3368 64.0614 36.498 74.001 36.498C83.9406 36.498 92.001 28.3368 92.001 18.273C92.001 8.20912 83.9406 0.0479736 74.001 0.0479736ZM85.2482 18.2916C85.2482 18.2916 85.2482 21.9877 84.7852 23.77C84.5256 24.7456 83.7659 25.5147 82.8024 25.7773C81.0421 26.2464 74.001 26.2464 74.001 26.2464C74.001 26.2464 66.9782 26.2464 65.1996 25.7586C64.2361 25.4961 63.4763 24.7266 63.2168 23.7511C62.7534 21.9877 62.7534 18.273 62.7534 18.273C62.7534 18.273 62.7534 14.5771 63.2168 12.7948C63.4761 11.8193 64.2545 11.0312 65.1996 10.7687C66.9598 10.2995 74.001 10.2995 74.001 10.2995C74.001 10.2995 81.0421 10.2995 82.8024 10.7873C83.7659 11.0498 84.5256 11.8193 84.7852 12.7948C85.2669 14.5771 85.2482 18.2916 85.2482 18.2916Z" fill="black"/>
<path d="M131.334 0.0479736C121.394 0.0479736 113.334 8.20912 113.334 18.273C113.334 28.3368 121.394 36.498 131.334 36.498C141.274 36.498 149.334 28.3368 149.334 18.273C149.334 8.20912 141.274 0.0479736 131.334 0.0479736ZM139.553 14.2579C139.561 14.4373 139.564 14.6175 139.564 14.7985C139.564 20.3261 135.409 26.7003 127.809 26.7005H127.81H127.809C125.476 26.7005 123.305 26.0081 121.477 24.8215C121.8 24.8601 122.129 24.8793 122.462 24.8793C124.398 24.8793 126.179 24.2108 127.593 23.0887C125.785 23.0548 124.26 21.8453 123.734 20.1832C123.986 20.2321 124.245 20.2588 124.51 20.2588C124.887 20.2588 125.253 20.2074 125.6 20.1114C123.709 19.7282 122.285 18.0366 122.285 16.011C122.285 15.9921 122.285 15.9751 122.286 15.9576C122.842 16.271 123.479 16.4595 124.157 16.4807C123.048 15.7312 122.318 14.45 122.318 12.9987C122.318 12.2323 122.523 11.5142 122.878 10.896C124.915 13.4272 127.96 15.0919 131.394 15.2668C131.323 14.9603 131.286 14.6411 131.286 14.313C131.286 12.0037 133.137 10.1302 135.418 10.1302C136.607 10.1302 137.68 10.6388 138.434 11.4519C139.375 11.264 140.259 10.9158 141.058 10.4366C140.749 11.413 140.094 12.2323 139.241 12.7504C140.077 12.6491 140.873 12.4247 141.613 12.0916C141.06 12.9306 140.359 13.6675 139.553 14.2579Z" fill="black"/>
<path d="M190.667 17.5979C190.667 19.0891 189.473 20.2979 188.001 20.2979C186.528 20.2979 185.334 19.0891 185.334 17.5979C185.334 16.1068 186.528 14.8979 188.001 14.8979C189.473 14.8979 190.667 16.1068 190.667 17.5979Z" fill="black"/>
<path d="M195.608 11.9603C195.452 11.4955 195.202 11.0748 194.878 10.7296C194.563 10.374 194.18 10.1004 193.756 9.92889C193.412 9.78241 192.896 9.60806 191.944 9.56056C190.915 9.50908 190.607 9.49799 188.001 9.49799C185.395 9.49799 185.087 9.50879 184.058 9.56028C183.106 9.60806 182.59 9.78241 182.246 9.92889C181.822 10.1004 181.439 10.374 181.124 10.7296C180.8 11.0748 180.55 11.4952 180.394 11.9603C180.26 12.3374 180.101 12.9043 180.058 13.9478C180.011 15.0765 180.001 15.4149 180.001 18.2731C180.001 21.1311 180.011 21.4695 180.058 22.5984C180.101 23.642 180.26 24.2085 180.394 24.5857C180.55 25.0507 180.8 25.4711 181.124 25.8164C181.439 26.1719 181.822 26.4456 182.246 26.6171C182.59 26.7638 183.106 26.9382 184.058 26.9857C185.087 27.0372 185.395 27.048 188.001 27.048C190.607 27.048 190.915 27.0372 191.944 26.9857C192.896 26.9382 193.412 26.7638 193.756 26.6171C194.607 26.257 195.28 25.5192 195.608 24.5857C195.742 24.2085 195.901 23.642 195.944 22.5984C195.991 21.4695 196.001 21.1311 196.001 18.2731C196.001 15.4149 195.991 15.0765 195.944 13.9478C195.901 12.9043 195.742 12.3374 195.608 11.9603ZM188.001 23.7691C185.234 23.7691 182.99 21.3085 182.99 18.2728C182.99 15.2372 185.234 12.7766 188.001 12.7766C190.768 12.7766 193.012 15.2372 193.012 18.2728C193.012 21.3085 190.768 23.7691 188.001 23.7691ZM193.21 13.8437C192.563 13.8437 192.039 13.2686 192.039 12.5593C192.039 11.8499 192.563 11.2748 193.21 11.2748C193.857 11.2748 194.381 11.8499 194.381 12.5593C194.381 13.2686 193.857 13.8437 193.21 13.8437Z" fill="black"/>
<path d="M187.334 0.0479736C177.394 0.0479736 169.334 8.20912 169.334 18.273C169.334 28.3368 177.394 36.498 187.334 36.498C197.274 36.498 205.334 28.3368 205.334 18.273C205.334 8.20912 197.274 0.0479736 187.334 0.0479736ZM197.608 22.5876C197.558 23.7016 197.383 24.4622 197.127 25.1279C196.59 26.5337 195.493 27.6449 194.104 28.1886C193.447 28.4472 192.696 28.6241 191.596 28.675C190.493 28.7259 190.141 28.7381 187.334 28.7381C184.527 28.7381 184.175 28.7259 183.073 28.675C181.973 28.6241 181.221 28.4472 180.564 28.1886C179.874 27.9258 179.249 27.514 178.733 26.9814C178.207 26.4589 177.801 25.8262 177.541 25.1279C177.286 24.4625 177.111 23.7016 177.061 22.5878C177.01 21.4716 176.998 21.1151 176.998 18.273C176.998 15.4309 177.01 15.0744 177.06 13.9584C177.11 12.8443 177.285 12.0838 177.54 11.418C177.8 10.7197 178.207 10.0871 178.733 9.56454C179.249 9.03199 179.874 8.62014 180.564 8.35734C181.221 8.09872 181.972 7.92185 183.073 7.87096C184.175 7.82007 184.527 7.80784 187.334 7.80784C190.141 7.80784 190.493 7.82007 191.595 7.87124C192.696 7.92185 193.447 8.09872 194.104 8.35707C194.794 8.61986 195.419 9.03199 195.935 9.56454C196.461 10.0874 196.868 10.7197 197.127 11.418C197.383 12.0838 197.558 12.8443 197.608 13.9584C197.658 15.0744 197.67 15.4309 197.67 18.273C197.67 21.1151 197.658 21.4716 197.608 22.5876Z" fill="black"/>
</svg>
